<svg xmlns="http://www.w3.org/2000/svg" viewBox="0 0 822.23 496.29"><defs><style>.cls-1{fill:#feffff;}</style></defs><g id="Layer_2" data-name="Layer 2"><g id="Layer_15" data-name="Layer 15"><path class="cls-1" d="M751.24,178.71c3.88-2,6.86-3.57,9.83-5.15a84.92,84.92,0,0,0,29.61-26c12.37-17.33,16.52-36.74,15.66-57.77-.62-15.72-4.8-30-13.85-42.85-18-25.43-43-37.84-73.8-38.29-30.62-.44-61.25-.11-91.89-.07a54.72,54.72,0,0,0-5.8.57v291c5.49,0,10.51.15,15.54-.06,5.3-.21,10.74,1,16.56-1.3V184.21c2.33-.16,4-.37,5.59-.39,17.7,0,35.41.21,53.09-.15,5.59-.12,8.47,1.92,11.12,6.7,11.2,20.16,22.82,40.1,34.24,60.14,8.24,14.45,16.33,29,24.72,43.34,1.42,2.44,3.86,5.86,6,6a279.38,279.38,0,0,0,33.25,0C797.52,259,774.66,219.31,751.24,178.71Zm-30-23.55c-22.33.75-44.73.23-67.94.23V38.92c2.52-.17,4.48-.4,6.44-.4,20.38,0,40.79.33,61.17,0,21.27-.38,44.42,14.28,52,39.64,7.61,25.66-1.92,51.77-21.48,66.2A53.62,53.62,0,0,1,721.23,155.16Z"/><path class="cls-1" d="M175.16,49.42c-6.86-12.94-13.06-20.55-21.44-27.26C130.08,3.25,103,.55,74.72,6.53,33.32,15.26,9,54.18,21,98.32c4,14.94,13.3,25.67,25.47,34.44C62.84,144.54,81,153,99.19,161.3c14.53,6.6,28.75,13.71,41.81,23a44.1,44.1,0,0,1,17.51,25.47,52.29,52.29,0,0,1,.09,28.16c-4.2,14.46-11.29,26.79-26.24,33-15.63,6.48-31.86,7-48,4.15-24.59-4.28-41-19.87-52.45-41.25-1.57-2.93-3.06-5.89-4.89-9.43-7.66,3.48-14.61,6.86-21.76,9.81-4.37,1.79-4.23,4.28-2.69,8,7.37,18.06,18.33,33.57,34.56,44.37,34.55,23,71.75,25,109.6,10,21.71-8.62,35.09-26.12,41.91-48.4,3.25-10.55,2.8-21.48,2.38-32.33-.53-13.48-4.22-25.94-12.15-37.06-7.67-10.78-18.2-18.16-29-25.24-18.83-12.3-39.7-20.51-60-29.92A130.56,130.56,0,0,1,61.7,105.49c-15.53-12.85-15.45-44.28-.56-58.84,18.23-17.83,51.64-18.7,71.07-2.78,6.44,5.28,11.64,12.1,17.61,18.44l25.34-12.89"/><path class="cls-1" d="M277.34,300.2c10.21,0,19.05-.2,27.86.08,4.06.13,6-1.53,7.48-5.09,6.23-14.65,12.82-29.14,19.09-43.77Q368,166.9,404.06,82.35c1-2.24,2.4-4.28,4.23-7.5,1.82,4.24,3,7,4.22,9.77q32.6,76.11,65.19,152.22,12.42,28.93,25.17,57.74c1,2.26,1.19,5.59,5,5.58,10.11,0,20.24,0,31.8,0L408.31,0c-43.87,100.58-87.19,199.85-131,300.2"/><path class="cls-1" d="M387.37,215,409,235.31c8.17-7.66,15.52-14.53,21.69-20.33l-21.19-21.35L387.37,215"/><path class="cls-1" d="M581.15,293c.24-3.87-3.26-8.14-7-8.55-4-.43-8.74,3.86-8.75,8a8.1,8.1,0,0,0,7.69,7.73,7.62,7.62,0,0,0,8-7.17"/><path class="cls-1" d="M223.53,292.61c0-3.95-4.85-8.5-8.66-8.17s-7.14,4.47-7,8.41c.19,4.54,3.25,7.41,7.76,7.31,4-.09,7.9-3.82,7.88-7.55"/><path class="cls-1" d="M40,400.23c.8-.36,1.17-.28,1.17.37v6.25a1.38,1.38,0,0,1-1,1.26A32.28,32.28,0,0,1,26.9,411a26.18,26.18,0,0,1-19-7.72,26.56,26.56,0,0,1,0-37.72,26,26,0,0,1,19-7.79,27.75,27.75,0,0,1,13.17,2.94,2,2,0,0,1,1.1,1.7v5.87c0,.81-.44.95-1.33.52a26.42,26.42,0,0,0-12.94-3,17.74,17.74,0,0,0-13.09,5.52,18.65,18.65,0,0,0,0,26.17,18,18,0,0,0,13.09,5.44A29.87,29.87,0,0,0,40,400.23"/><path class="cls-1" d="M102,359.57c0-.81.23-.81.81-.81H129c.74,0,1.11.3,1.11.81V366c0,.66-.15.81-1,.81H110.79a.15.15,0,0,0-.14.15v12.71c0,.16.06.23.14.23h18.53c.51,0,.81.37.81,1.17v5.23c0,1.09-.3,1.61-.89,1.61H110.86c-.15,0-.21.08-.21.23V402c0,.16.06.23.21.23H129.4c.51,0,.73.51.73,1.54V409c0,.8-.37,1.25-1.19,1.25h-26c-.74,0-1,0-1-1Z"/><path class="cls-1" d="M204.75,358.76c15.74,0,19.78,6.18,19.78,14.86,0,7.57-2.87,12.57-8.67,14.84L233.13,409c.51.52.44,1.25-.44,1.25h-8.38a1.76,1.76,0,0,1-1.47-.81l-16.25-19.33h-5.3c-.51,0-.81.29-.81,1v18.24c0,.66-.28,1-.95,1h-6.84c-.58,0-.88-.29-.88-1V360c0-.82.37-1.19,1-1.19Zm-4.27,22.43c0,.81.16.89.81.89h4c7,0,10.21-2.36,10.21-7.65,0-5.52-3.3-7.65-10.29-7.65h-4c-.66,0-.74,0-.74.8Z"/><path class="cls-1" d="M310.18,358.91c.44-1,.88-1,1.25-.14l23.16,50.36c.36.73.14,1.11-.59,1.11h-7.21a1.26,1.26,0,0,1-1.25-.73l-4.19-9.42H300.17l-4.11,9.34a1.48,1.48,0,0,1-1.47.81h-7.2c-.6,0-.74-.38-.44-1.19ZM303.71,392h14.12l-6.69-15.23c-.22-.52-.45-.52-.67,0Z"/><path class="cls-1" d="M436.55,410.23c-.88,0-1-.22-1-1V378.84c0-.59-.44-.52-.73-.23l-15.37,17c-.67.67-1.24.67-1.84,0l-15.29-16.68c-.59-.59-1-.37-1,.44v29.93c0,.66-.22,1-.73,1H394c-1,0-1-.15-1-1.1V359.28c0-.8.66-.74.81-.44l24,25.14c.68.67.81.67,1.49.08l23.59-24.93c.52-.65,1.18-.44,1.18.44v49.78c0,.66-.15.88-.82.88Z"/><path class="cls-1" d="M508.58,410.23c-.95,0-1-.15-1-1.1V359.8c0-.88.08-1,1-1h6.84a.78.78,0,0,1,.88.88V409.2c0,.66-.29,1-1,1Z"/><path class="cls-1" d="M585.65,365.53a27.26,27.26,0,0,1,38.16,0,25.46,25.46,0,0,1,7.94,18.82,26.49,26.49,0,0,1-11.32,21.7l7.72,11.9c.73,1.18.44,1.77-1,1.77h-5.88c-1.25,0-1.62-.15-2.5-1.54l-5.52-8.53a29.35,29.35,0,0,1-8.53,1.32,26.44,26.44,0,0,1-19.11-7.72,26.53,26.53,0,0,1,0-37.72m23.09,36.92-5.08-7.95c-.8-1.25-.59-1.69,1-1.69h5.88c1.25,0,1.69,0,2.43,1.47l3,4.79a18.54,18.54,0,0,0,7.2-14.72,18.45,18.45,0,0,0-18.38-18.61,17.71,17.71,0,0,0-13.09,5.53,18.53,18.53,0,0,0,13.09,31.61,19.31,19.31,0,0,0,4-.43"/><path class="cls-1" d="M721.86,359.72c0-.65.23-1,.74-1H730c.66,0,1,.3,1,.88v31.11c0,13.44-6.39,20.21-19.11,20.21s-19.34-6.77-19.34-20.21V359.57c0-.66,0-.8.67-.8h7.56c.68,0,.81.14.81,1v30.81c0,7.87,3.46,11.84,10.3,11.84,6.69,0,10-4,10-11.84Z"/><path class="cls-1" d="M794.06,359.57c0-.81.22-.81.81-.81h26.25c.73,0,1.11.3,1.11.81V366c0,.66-.16.81-1,.81H802.89a.15.15,0,0,0-.15.15v12.71c0,.16.07.23.15.23h18.53c.5,0,.81.37.81,1.17v5.23c0,1.09-.31,1.61-.89,1.61H803a.2.2,0,0,0-.23.23V402c0,.16.07.23.23.23h18.52c.51,0,.74.51.74,1.54V409c0,.8-.38,1.25-1.19,1.25H795c-.74,0-1,0-1-1Z"/><path class="cls-1" d="M543.87,472.25H271.74V496c2.13.12,3.76.3,5.39.3q132.71-.1,265.41-.25c.27,0,.55-.32.8-.52a4.86,4.86,0,0,0,.53-.53Z"/></g></g></svg>